<svg width="1440" height="2720" viewBox="0 0 1440 2720" fill="none" xmlns="http://www.w3.org/2000/svg">
<g clip-path="url(#clip0_2233_909)">
<rect width="1440" height="2720" fill="#CEBE93"/>
<path d="M661.059 1726.58C682.379 1694.78 725.44 1686.28 757.238 1707.6L1125.5 1954.52C1157.3 1975.84 1165.79 2018.9 1144.47 2050.7L998.822 2219.13C966.238 2256.81 912.96 2268.98 867.253 2249.16L561.558 2116.66C496.223 2088.34 472.553 2007.72 512.209 1948.58L661.059 1726.58Z" fill="#B7A478"/>
<path d="M741.049 1006.05C670.877 1019.64 608.156 1004.4 556.504 977.773C482.745 939.742 520.735 848.724 603.409 841.525L1334.03 777.911C1394.37 772.657 1447.6 817.168 1453.11 877.482L1515.84 1563.67C1521.38 1624.16 1476.81 1677.69 1416.32 1683.22L1411.74 1683.64C1054.01 1668.06 1096.04 1471.71 1161.77 1375.48C1199.2 1308.73 1263.41 1150.29 1220.9 1050.49C1167.76 925.739 939.651 967.559 741.049 1006.05Z" fill="#B7A478"/>
<path d="M220.037 1462.77C257.062 1578.27 462.818 1559.59 642.127 1541.47C792.482 1526.28 732.029 1699.21 580.91 1698.56L227.011 1697.02C101.478 1696.48 0 1594.56 0 1469.02V985.085C0 928.705 45.7048 883 102.084 883C418.176 926.03 364.965 1097.58 298.848 1177.98C260.236 1234.41 190.417 1370.37 220.037 1462.77Z" fill="#B7A478"/>
<path d="M1440 2582.24C1440 2615.8 1412.8 2643 1379.24 2643H6.77597C-21.8191 2643 -45 2619.82 -45 2591.22V2591.22C-45 2585.28 -43.9759 2579.38 -41.9725 2573.78L29.1033 2375.17C42.0216 2339.07 75.1801 2314.12 113.445 2311.7L1337.95 2234.44C1393.24 2230.95 1440 2274.85 1440 2330.25V2582.24V2582.24Z" fill="#B7A478"/>
<g clip-path="url(#clip1_2233_909)">
<rect width="1440" height="700" fill="#CEBE93"/>
<path d="M0 102.489C0 45.8859 45.8859 0 102.489 0H1346.98C1398.35 0 1440 41.6463 1440 93.0196C1440 99.3163 1439.36 105.597 1438.09 111.764L1364.08 471.525C1354.2 519.555 1314.47 555.73 1265.72 561.08L125.328 686.245C58.4411 693.586 0 641.208 0 573.919V102.489Z" fill="#B7A478"/>
</g>
<rect width="1440" height="200" transform="translate(0 2520)" fill="#B7A478"/>
<path d="M-61 93H1501V60.3499L1400.66 -82.8847L-61 -130V60.3499V93Z" fill="#B7A478"/>
</g>
<defs>
<clipPath id="clip0_2233_909">
<rect width="1440" height="2720" fill="white"/>
</clipPath>
<clipPath id="clip1_2233_909">
<rect width="1440" height="700" fill="white"/>
</clipPath>
</defs>
</svg>
