<?xml version="1.0" encoding="UTF-8"?>
<svg xmlns="http://www.w3.org/2000/svg" version="1.1" xmlns:xlink="http://www.w3.org/1999/xlink" viewBox="0 0 1440 2720">
  <defs>
    <style>
      .cls-1 {
        fill: #B7A478;
      }

      .cls-2 {
        fill: none;
      }

      .cls-3 {
        clip-path: url(#clippath);
      }

      .cls-4 {
        fill: #B7A478;
      }
    </style>
    <clipPath id="clippath">
      <rect class="cls-2" y="0" width="1440" height="2720"/>
    </clipPath>
  </defs>
  <!-- Generator: Adobe Illustrator 28.7.1, SVG Export Plug-In . SVG Version: 1.2.0 Build 142)  -->
  <g>
    <g id="Layer_1">
      <g class="cls-3">
        <path class="cls-4" d="M661.1,1726.6c21.3-31.8,64.4-40.3,96.2-19l368.3,246.9c31.8,21.3,40.3,64.4,19,96.2l-145.6,168.4c-32.6,37.7-85.9,49.9-131.6,30l-305.7-132.5c-65.3-28.3-89-108.9-49.3-168.1l148.9-222Z"/>
        <path class="cls-1" d="M741,1006c-70.2,13.6-132.9-1.6-184.5-28.3-73.8-38-35.8-129,46.9-136.2l730.6-63.6c60.3-5.3,113.6,39.3,119.1,99.6l62.7,686.2c5.5,60.5-39,114-99.5,119.5l-4.6.4c-357.7-15.6-315.7-211.9-250-308.2,37.4-66.8,101.6-225.2,59.1-325-53.1-124.8-281.2-82.9-479.9-44.4Z"/>
        <path class="cls-1" d="M220,1462.8c37,115.5,242.8,96.8,422.1,78.7,150.4-15.2,89.9,157.7-61.2,157.1l-353.9-1.5c-125.5-.5-227-102.5-227-228v-483.9c0-56.4,45.7-102.1,102.1-102.1,316.1,43,262.9,214.6,196.8,295-38.6,56.4-108.4,192.4-78.8,284.8Z"/>
        <path class="cls-4" d="M1440,2643H-45v-60.8l95.4-266.6,1389.6-87.7v415Z"/>
        <rect class="cls-4" y="2520" width="1440" height="200"/>
        <g>
          <path class="cls-4" d="M0,93v9.5c0-3.2.2-6.4.4-9.5h-.4Z"/>
          <path class="cls-4" d="M1364.1,471.5c-9.9,48-49.6,84.2-98.4,89.6L125.3,686.2C58.4,693.6,0,641.2,0,573.9v2153.5h1440V93c0,6.3-.6,12.6-1.9,18.7l-74,359.8Z"/>
          <path class="cls-4" d="M1440,93s0,0,0,0h0s0,0,0,0Z"/>
        </g>
      </g>
    </g>
  </g>
</svg>